Patient4_TMGait_0pt7_01_left_32_EMG.mot
version=1
nRows=16
nColumns=33
inDegrees=no
endheader
time	1LAddLong	2LGlutMax	3LGlutMed	4LIliopsoas	5LSemiMemb	6LBicFemLong	7LRecFem	8LVastMed	9LVastLat	10LGasMed	11LTibAnt	12lTibPost	13LPeroneusLong	14LSol	15LExtDigLong	16LFlexDigLong	17RAddLong	18RGlutMax	19RGlutMed	20RIliopsoas	21RSemiMemb	22RBicFemLong	23RRecFem	24RVastMed	25RVastLat	26RGasMed	27RTibAnt	28RTibPost	29RPeroneusLong	30RSol	31RExtDigLong	32RFlexDigLong
37.775	-0.007477	-0.097809	-0.10803	0.036469	0.002289	-0.001678	-0.26977	0.019531	-0.1059	-0.029144	0.036163	-0.004272	0.027466	0.10773	-0.015259	-0.002899	-0.075836	-0.14572	-0.26932	0.088959	0.02121	0.41214	-0.73547	0.028534	0.34943	0.000916	0.2388	-0.003815	-0.29022	-0.1181	-0.000458	-0.012665
37.776	0.001373	-0.081329	-0.12985	0.055542	-0.000458	0.005798	-0.2565	0.020294	-0.097961	0.065918	0.036163	-0.005493	0.051117	0.099945	-0.003967	-0.010376	-0.028534	-0.25116	0.6488	-0.047455	-0.20874	0.72433	-0.7428	-0.40359	0.23758	-0.000153	0.13657	-0.002136	0.36545	-0.004272	-0.001678	-0.006409
37.777	-0.005646	-0.04776	-0.16251	0.031738	-0.005493	0.019226	-0.25604	0.017853	-0.09079	0.14511	0.026398	-0.010834	0.055237	0.094147	-0.002289	-0.007935	0.066376	-0.40588	0.8667	-0.078125	-0.18509	0.81696	-0.47226	-0.78598	0.087433	-0.000153	0.068665	-0.001221	0.007935	0.032654	0.000305	-0.007935
37.778	0.001373	-0.075989	-0.13123	0.014038	-0.010681	0.027618	-0.27069	0.018158	-0.11612	0.11688	0.023041	-0.005188	0.066681	0.15778	-0.008698	-0.003204	0.18616	-0.43091	1.2457	-0.13397	-0.17624	0.61279	-0.068207	-0.6807	-0.022583	0.001831	0.12863	-0.00412	-0.072784	0.06073	0	-0.012817
37.779	0.006561	-0.093536	-0.071259	-0.020752	-0.010986	0.001526	-0.28854	0.022583	-0.10071	0.039368	-0.003052	-0.004272	0.032959	0.11826	-0.1239	-0.008087	0.27771	-0.49591	0.43289	-0.10727	-0.051727	0.5806	-0.011749	-0.44144	0.50369	-0.004272	0.24689	-0.000916	-1.3826	0.039368	-0.006104	-0.006256
37.78	0.000763	-0.080566	-0.033112	-0.0177	-0.015717	0.005798	-0.29831	0.020294	-0.11231	-0.006104	0.002594	-0.006714	-0.036163	0.060577	0.13077	-0.025177	0.22293	-0.51468	0.29419	-0.1268	0.39124	0.62515	0.065765	-0.22659	0.36697	-0.009918	0.28091	-0.002136	-1.0521	0.045471	-0.005341	-0.004272
37.781	0.000153	-0.12039	-0.029297	-0.002899	0.000916	0.001373	-0.32883	0.011597	-0.10956	0.035858	0.006866	-0.000763	-0.039673	0.08316	0.054626	-0.013733	0.13916	-0.52307	0.025024	-0.18616	0.32105	0.64941	0.05249	-0.13977	-0.064697	-0.011139	0.2092	-0.002899	0.70129	0.042572	-0.001678	-0.007019
37.782	0.005188	-0.1152	-0.037842	0.009003	-0.010071	0.046844	-0.34531	0.016937	-0.12344	0.08728	-0.001831	-0.009003	-0.020142	0.033112	0.026245	0.00061	0.0354	-0.5275	-0.24368	-0.16571	0.30426	0.88226	-0.15015	-0.035095	-0.44632	-0.008698	0.21088	-0.000458	2.0168	0.058899	0.003967	-0.014954
37.783	-0.002594	-0.11551	-0.056305	0.003204	-0.014343	0.041046	-0.3508	0.018463	-0.12161	0.095978	0.033417	0	-0.057831	0.034332	0.017242	-0.003815	0.029449	-0.49667	-0.38086	-0.1355	0.13016	0.95688	-0.20065	0.10757	-0.54871	0	0.32745	-0.000763	1.2016	0.033722	-0.002899	-0.011902
37.784	-0.000458	-0.096283	-0.018921	0.016022	-0.019836	0.024261	-0.345	0.027618	-0.12665	0.075836	0.039063	-0.009003	-0.079803	0.065002	0.2182	-0.007324	0.036621	-0.49042	-0.26306	-0.005798	-0.22308	1.156	-0.24918	0.19745	-0.42221	-0.005188	0.43091	0.001526	-0.29404	0.006256	-0.002899	-0.010986
37.785	0.000763	-0.098572	0.010529	0.016327	-0.029297	0.029449	-0.34058	0.022736	-0.12451	0.047607	0.076141	-0.003357	-0.058289	0.081329	-0.19989	-0.011444	0.10727	-0.48248	0.088348	0.097351	-0.15198	1.2047	-0.17868	0.24612	-0.31662	-0.001526	-0.010071	-0.005341	-0.64911	-0.042572	-0.001678	-0.011902
37.786	0.001678	-0.097198	0.031738	0.000305	-0.021973	0.042725	-0.33829	0.036469	-0.12405	-0.007629	0.027466	0.005798	-0.038757	0.081177	-0.16693	-0.00351	0.066223	-0.37872	0.48325	0.045471	0.20859	1.2926	-0.21698	0.46341	-0.22339	0.008087	-0.30868	-0.002594	-0.40237	-0.039978	-0.002136	-0.015717
37.787	0.000916	-0.049744	0.048676	-0.000916	-0.040283	0.017548	-0.31479	0.059814	-0.11002	-0.10498	-0.00351	0.000763	-0.032349	0.076752	-0.1268	-0.009613	0.088654	-0.36331	0.36591	0.053864	0.34759	1.351	0.051422	0.49606	-0.4361	0.004578	-0.2562	0.003052	0.049133	-0.040131	0.000305	-0.022736
37.788	-0.000305	-0.043488	0.020142	0.000458	-0.021667	0.010223	-0.32791	0.026245	-0.10254	-0.16815	-0.002899	-0.006714	-0.027313	0.056915	-0.12116	-0.007935	0.023651	-0.2948	-0.13504	-0.016327	-0.17059	1.0228	0.14358	0.38711	-0.26779	-0.002747	-0.015106	0.001068	0.16373	-0.009918	-0.000305	-0.010071
37.789	0.006866	-0.059967	0.032349	0.001984	-0.025787	-0.009003	-0.31845	0.00824	-0.097198	-0.18768	0.008698	0.001984	-0.017548	0.044556	-0.11688	-0.005646	-0.068359	-0.20554	-0.23773	-0.09613	-0.38269	0.61249	0.036316	0.25223	0.046082	-0.016327	0.20126	0.000153	0.7933	-0.030365	-0.005798	-0.018005
37.79	-0.00351	-0.05127	0.043488	0.002289	-0.014496	-0.047607	-0.31998	0.018005	-0.10178	-0.068359	0.012207	-0.009766	-0.051727	0.039368	-0.071106	-0.008545	-0.1062	-0.25055	-0.10986	0.013885	-0.24078	0.50522	-0.19348	-0.060577	0.14984	-0.013428	0.43778	0.000305	0.16007	0.005493	-0.000305	-0.017548
